{
	"asset":{
		"generator":"Khronos glTF Blender I/O v3.6.27",
		"version":"2.0"
	},
	"extensionsUsed":[
		"KHR_materials_specular",
		"KHR_materials_ior"
	],
	"scene":0,
	"scenes":[
		{
			"name":"Scene",
			"nodes":[
				0,
				1,
				2,
				3,
				4,
				5,
				6
			]
		}
	],
	"nodes":[
		{
			"mesh":0,
			"name":"Trappe Bottom"
		},
		{
			"mesh":1,
			"name":"Eye.001",
			"rotation":[
				0.70710688829422,
				0,
				0,
				0.7071066498756409
			]
		},
		{
			"mesh":2,
			"name":"Fans",
			"rotation":[
				0,
				-0.23131725192070007,
				0,
				0.9728784561157227
			]
		},
		{
			"mesh":3,
			"name":"Trappes"
		},
		{
			"mesh":4,
			"name":"Eye",
			"rotation":[
				0.70710688829422,
				0,
				0,
				0.7071066498756409
			]
		},
		{
			"mesh":5,
			"name":"Leon"
		},
		{
			"mesh":6,
			"name":"Trappe Top"
		}
	],
	"materials":[
		{
			"doubleSided":true,
			"emissiveFactor":[
				1,
				1,
				1
			],
			"emissiveTexture":{
				"index":0
			},
			"name":"Material.001",
			"normalTexture":{
				"index":1
			},
			"pbrMetallicRoughness":{
				"baseColorTexture":{
					"index":2
				},
				"metallicRoughnessTexture":{
					"index":3
				},
				"roughnessFactor":0.5
			}
		},
		{
			"doubleSided":true,
			"extensions":{
				"KHR_materials_specular":{
					"specularColorFactor":[
						1.142563184677125,
						1.142563184677125,
						1.142563184677125
					]
				},
				"KHR_materials_ior":{
					"ior":1.4500000476837158
				}
			},
			"name":"Eye",
			"normalTexture":{
				"index":4
			},
			"pbrMetallicRoughness":{
				"baseColorFactor":[
					0,
					0,
					0,
					1
				],
				"metallicFactor":0,
				"roughnessFactor":0.04545454680919647
			}
		}
	],
	"meshes":[
		{
			"name":"Trappe Back.003",
			"primitives":[
				{
					"attributes":{
						"POSITION":0,
						"NORMAL":1,
						"TEXCOORD_0":2
					},
					"indices":3,
					"material":0
				}
			]
		},
		{
			"name":"Cylinder.003",
			"primitives":[
				{
					"attributes":{
						"POSITION":4,
						"NORMAL":5,
						"TEXCOORD_0":6
					},
					"indices":7,
					"material":1
				}
			]
		},
		{
			"name":"Fans",
			"primitives":[
				{
					"attributes":{
						"POSITION":8,
						"NORMAL":9,
						"TEXCOORD_0":10
					},
					"indices":11,
					"material":0
				}
			]
		},
		{
			"name":"Trappe Back.002",
			"primitives":[
				{
					"attributes":{
						"POSITION":12,
						"NORMAL":13,
						"TEXCOORD_0":14
					},
					"indices":15,
					"material":0
				}
			]
		},
		{
			"name":"Cylinder.001",
			"primitives":[
				{
					"attributes":{
						"POSITION":16,
						"NORMAL":17,
						"TEXCOORD_0":18
					},
					"indices":19,
					"material":0
				}
			]
		},
		{
			"name":"leon.002",
			"primitives":[
				{
					"attributes":{
						"POSITION":20,
						"NORMAL":21,
						"TEXCOORD_0":22
					},
					"indices":23,
					"material":0
				}
			]
		},
		{
			"name":"leon.003",
			"primitives":[
				{
					"attributes":{
						"POSITION":24,
						"NORMAL":25,
						"TEXCOORD_0":26
					},
					"indices":27,
					"material":0
				}
			]
		}
	],
	"textures":[
		{
			"sampler":0,
			"source":0
		},
		{
			"sampler":0,
			"source":1
		},
		{
			"sampler":0,
			"source":2
		},
		{
			"sampler":0,
			"source":3
		},
		{
			"sampler":0,
			"source":1
		}
	],
	"images":[
		{
			"bufferView":4,
			"mimeType":"image/png",
			"name":"LeonTexture_Material_Emission"
		},
		{
			"bufferView":5,
			"mimeType":"image/png",
			"name":"LeonTexture_Material_Normal"
		},
		{
			"bufferView":6,
			"mimeType":"image/png",
			"name":"LeonTexture_Material_AlbedoTransparency"
		},
		{
			"bufferView":7,
			"mimeType":"image/png",
			"name":"LeonTexture_Material_MetallicSmoothness"
		}
	],
	"accessors":[
		{
			"bufferView":0,
			"componentType":5126,
			"count":288,
			"max":[
				0.6022005677223206,
				-0.19098784029483795,
				0.6428371667861938
			],
			"min":[
				-0.6022005677223206,
				-0.36282625794410706,
				-0.6192834377288818
			],
			"type":"VEC3"
		},
		{
			"bufferView":1,
			"componentType":5126,
			"count":288,
			"type":"VEC3"
		},
		{
			"bufferView":2,
			"componentType":5126,
			"count":288,
			"type":"VEC2"
		},
		{
			"bufferView":3,
			"componentType":5123,
			"count":1080,
			"type":"SCALAR"
		},
		{
			"bufferView":8,
			"componentType":5126,
			"count":224,
			"max":[
				0.13724227249622345,
				0.755483865737915,
				0.13583660125732422
			],
			"min":[
				-0.13724224269390106,
				0.7222211360931396,
				-0.13864795863628387
			],
			"type":"VEC3"
		},
		{
			"bufferView":9,
			"componentType":5126,
			"count":224,
			"type":"VEC3"
		},
		{
			"bufferView":10,
			"componentType":5126,
			"count":224,
			"type":"VEC2"
		},
		{
			"bufferView":11,
			"componentType":5123,
			"count":1242,
			"type":"SCALAR"
		},
		{
			"bufferView":12,
			"componentType":5126,
			"count":4290,
			"max":[
				0.7054881453514099,
				0.34811192750930786,
				0.47493836283683777
			],
			"min":[
				-0.7147369384765625,
				-0.2649464011192322,
				-0.45693734288215637
			],
			"type":"VEC3"
		},
		{
			"bufferView":13,
			"componentType":5126,
			"count":4290,
			"type":"VEC3"
		},
		{
			"bufferView":14,
			"componentType":5126,
			"count":4290,
			"type":"VEC2"
		},
		{
			"bufferView":15,
			"componentType":5123,
			"count":17856,
			"type":"SCALAR"
		},
		{
			"bufferView":16,
			"componentType":5126,
			"count":400,
			"max":[
				0.9999999403953552,
				0.08752802014350891,
				0.6763641238212585
			],
			"min":[
				-0.9999999403953552,
				-0.08752802014350891,
				-0.13769730925559998
			],
			"type":"VEC3"
		},
		{
			"bufferView":17,
			"componentType":5126,
			"count":400,
			"type":"VEC3"
		},
		{
			"bufferView":18,
			"componentType":5126,
			"count":400,
			"type":"VEC2"
		},
		{
			"bufferView":19,
			"componentType":5123,
			"count":1104,
			"type":"SCALAR"
		},
		{
			"bufferView":20,
			"componentType":5126,
			"count":418,
			"max":[
				0.18126314878463745,
				0.7539428472518921,
				0.17985746264457703
			],
			"min":[
				-0.18126311898231506,
				0.6311310529708862,
				-0.18266889452934265
			],
			"type":"VEC3"
		},
		{
			"bufferView":21,
			"componentType":5126,
			"count":418,
			"type":"VEC3"
		},
		{
			"bufferView":22,
			"componentType":5126,
			"count":418,
			"type":"VEC2"
		},
		{
			"bufferView":23,
			"componentType":5123,
			"count":2112,
			"type":"SCALAR"
		},
		{
			"bufferView":24,
			"componentType":5126,
			"count":5553,
			"max":[
				1,
				0.41350287199020386,
				0.7070549130439758
			],
			"min":[
				-1,
				-0.41351303458213806,
				-0.7236143350601196
			],
			"type":"VEC3"
		},
		{
			"bufferView":25,
			"componentType":5126,
			"count":5553,
			"type":"VEC3"
		},
		{
			"bufferView":26,
			"componentType":5126,
			"count":5553,
			"type":"VEC2"
		},
		{
			"bufferView":27,
			"componentType":5123,
			"count":23508,
			"type":"SCALAR"
		},
		{
			"bufferView":28,
			"componentType":5126,
			"count":330,
			"max":[
				0.6022006273269653,
				0.3833761215209961,
				0.6428371071815491
			],
			"min":[
				-0.6022005081176758,
				0.19098764657974243,
				-0.13238775730133057
			],
			"type":"VEC3"
		},
		{
			"bufferView":29,
			"componentType":5126,
			"count":330,
			"type":"VEC3"
		},
		{
			"bufferView":30,
			"componentType":5126,
			"count":330,
			"type":"VEC2"
		},
		{
			"bufferView":31,
			"componentType":5123,
			"count":1404,
			"type":"SCALAR"
		}
	],
	"bufferViews":[
		{
			"buffer":0,
			"byteLength":3456,
			"byteOffset":0,
			"target":34962
		},
		{
			"buffer":0,
			"byteLength":3456,
			"byteOffset":3456,
			"target":34962
		},
		{
			"buffer":0,
			"byteLength":2304,
			"byteOffset":6912,
			"target":34962
		},
		{
			"buffer":0,
			"byteLength":2160,
			"byteOffset":9216,
			"target":34963
		},
		{
			"buffer":0,
			"byteLength":27922,
			"byteOffset":11376
		},
		{
			"buffer":0,
			"byteLength":877932,
			"byteOffset":39300
		},
		{
			"buffer":0,
			"byteLength":1279735,
			"byteOffset":917232
		},
		{
			"buffer":0,
			"byteLength":367991,
			"byteOffset":2196968
		},
		{
			"buffer":0,
			"byteLength":2688,
			"byteOffset":2564960,
			"target":34962
		},
		{
			"buffer":0,
			"byteLength":2688,
			"byteOffset":2567648,
			"target":34962
		},
		{
			"buffer":0,
			"byteLength":1792,
			"byteOffset":2570336,
			"target":34962
		},
		{
			"buffer":0,
			"byteLength":2484,
			"byteOffset":2572128,
			"target":34963
		},
		{
			"buffer":0,
			"byteLength":51480,
			"byteOffset":2574612,
			"target":34962
		},
		{
			"buffer":0,
			"byteLength":51480,
			"byteOffset":2626092,
			"target":34962
		},
		{
			"buffer":0,
			"byteLength":34320,
			"byteOffset":2677572,
			"target":34962
		},
		{
			"buffer":0,
			"byteLength":35712,
			"byteOffset":2711892,
			"target":34963
		},
		{
			"buffer":0,
			"byteLength":4800,
			"byteOffset":2747604,
			"target":34962
		},
		{
			"buffer":0,
			"byteLength":4800,
			"byteOffset":2752404,
			"target":34962
		},
		{
			"buffer":0,
			"byteLength":3200,
			"byteOffset":2757204,
			"target":34962
		},
		{
			"buffer":0,
			"byteLength":2208,
			"byteOffset":2760404,
			"target":34963
		},
		{
			"buffer":0,
			"byteLength":5016,
			"byteOffset":2762612,
			"target":34962
		},
		{
			"buffer":0,
			"byteLength":5016,
			"byteOffset":2767628,
			"target":34962
		},
		{
			"buffer":0,
			"byteLength":3344,
			"byteOffset":2772644,
			"target":34962
		},
		{
			"buffer":0,
			"byteLength":4224,
			"byteOffset":2775988,
			"target":34963
		},
		{
			"buffer":0,
			"byteLength":66636,
			"byteOffset":2780212,
			"target":34962
		},
		{
			"buffer":0,
			"byteLength":66636,
			"byteOffset":2846848,
			"target":34962
		},
		{
			"buffer":0,
			"byteLength":44424,
			"byteOffset":2913484,
			"target":34962
		},
		{
			"buffer":0,
			"byteLength":47016,
			"byteOffset":2957908,
			"target":34963
		},
		{
			"buffer":0,
			"byteLength":3960,
			"byteOffset":3004924,
			"target":34962
		},
		{
			"buffer":0,
			"byteLength":3960,
			"byteOffset":3008884,
			"target":34962
		},
		{
			"buffer":0,
			"byteLength":2640,
			"byteOffset":3012844,
			"target":34962
		},
		{
			"buffer":0,
			"byteLength":2808,
			"byteOffset":3015484,
			"target":34963
		}
	],
	"samplers":[
		{
			"magFilter":9729,
			"minFilter":9987
		}
	],
	"buffers":[
		{
			"byteLength":3018292,
			"uri":"data:application/octet-stream;base64,"
		}
	]
}
